<?xml version="1.0" encoding="UTF-8" standalone="no"?>
<svg
   xmlns:dc="http://purl.org/dc/elements/1.1/"
   xmlns:cc="http://creativecommons.org/ns#"
   xmlns:rdf="http://www.w3.org/1999/02/22-rdf-syntax-ns#"
   xmlns:svg="http://www.w3.org/2000/svg"
   xmlns="http://www.w3.org/2000/svg"
   xmlns:sodipodi="http://sodipodi.sourceforge.net/DTD/sodipodi-0.dtd"
   xmlns:inkscape="http://www.inkscape.org/namespaces/inkscape"
   version="1.1"
   width="760.97504"
   height="168.29935"
   id="svg16"
   viewBox="0 0 760.97502 168.29934"
   sodipodi:docname="logo-text.svg"
   inkscape:version="0.92.3 (2405546, 2018-03-11)">
  <metadata
     id="metadata22">
    <rdf:RDF>
      <cc:Work
         rdf:about="">
        <dc:format>image/svg+xml</dc:format>
        <dc:type
           rdf:resource="http://purl.org/dc/dcmitype/StillImage" />
        <dc:title></dc:title>
      </cc:Work>
    </rdf:RDF>
  </metadata>
  <defs
     id="defs20" />
  <sodipodi:namedview
     pagecolor="#ffffff"
     bordercolor="#666666"
     borderopacity="1"
     objecttolerance="10"
     gridtolerance="10"
     guidetolerance="10"
     inkscape:pageopacity="0"
     inkscape:pageshadow="2"
     inkscape:window-width="1920"
     inkscape:window-height="1017"
     id="namedview18"
     showgrid="false"
     inkscape:zoom="1"
     inkscape:cx="451.68595"
     inkscape:cy="92.523694"
     inkscape:window-x="0"
     inkscape:window-y="30"
     inkscape:window-maximized="1"
     inkscape:current-layer="svg16" />
  <path
     inkscape:connector-curvature="0"
     id="path4"
     style="fill:#e6e6e6;fill-opacity:1;fill-rule:evenodd;stroke-width:1.38929617"
     d="m 197.11445,166.76514 v -5.54704 h 1.0303 c 4.64928,0 7.69045,-0.78023 9.09739,-2.36889 1.38249,-1.58963 2.08547,-5.51898 2.08547,-11.78845 v -85.0002 c 0,-6.29838 -0.67756,-10.22786 -2.05991,-11.75942 -1.38248,-1.53073 -4.42282,-2.28206 -9.12295,-2.28206 h -1.0303 v -5.72085 h 80.21574 v 7.48331 c 0,4.24708 0.101,11.55658 0.30203,21.92851 0,1.18479 0,2.05116 0,2.62952 h -3.76971 c -0.0502,-9.99696 -1.96002,-16.87286 -5.75516,-20.65758 -3.76888,-3.78556 -10.93085,-5.66291 -21.48533,-5.66291 h -23.42228 v 50.2721 h 11.78665 c 7.01108,0 11.48378,-1.21383 13.39462,-3.64065 1.90986,-2.42682 3.01491,-7.7431 3.3168,-15.91981 h 3.61884 c -0.15101,4.07425 -0.25104,8.14767 -0.32662,12.25096 -0.0763,4.07341 -0.12545,8.11793 -0.12545,12.13425 0,4.04535 0.0492,8.08973 0.12545,12.10619 0.0756,3.98644 0.17561,8.0029 0.32662,12.01838 h -3.61884 c -0.30189,-10.02516 -1.40694,-16.41037 -3.3168,-19.21299 -1.91084,-2.80249 -6.38354,-4.18915 -13.39462,-4.18915 h -11.78665 v 57.37974 h 29.90502 c 10.52989,0 17.71644,-2.10909 21.51158,-6.35631 3.8207,-4.24721 5.77975,-12.07715 5.88061,-23.48911 h 3.61884 c -0.27647,5.08455 -0.52751,10.48766 -0.72938,16.17961 -0.17561,5.69097 -0.32648,12.10522 -0.42651,19.21285 z M 254.86458,15.08151 232.72447,30.68358 h -5.45312 L 247.57619,5.17221 c 1.33233,-1.70536 2.66384,-2.97629 4.02076,-3.87155 C 252.92929,0.4336 254.2362,0 255.44211,0 c 1.53336,0 2.8393,0.66436 3.94532,1.99406 1.10588,1.32886 1.65882,2.88862 1.65882,4.70888 0,1.47362 -0.40206,2.77359 -1.20688,3.90059 -0.82858,1.12685 -2.46281,2.62952 -4.97479,4.47798 z M 348.90507,168.29934 308.22355,77.5476 c -0.11572,-0.2177 -0.28869,-0.57934 -0.49056,-1.06115 -2.59715,-5.74015 -7.15584,-8.6103 -13.70526,-8.6103 v -4.77459 c 3.2026,0.19214 6.57831,0.3369 10.06975,0.43346 3.49075,0.0966 7.24115,0.1449 11.22329,0.1449 4.06898,0 7.84744,-0.0483 11.39696,-0.1449 3.5195,-0.0966 6.86618,-0.24132 10.09796,-0.43346 v 4.77459 c -4.29904,0 -7.32798,0.33802 -9.08781,1.01294 -1.78955,0.69951 -2.68398,1.80886 -2.68398,3.37654 0,0.84428 0.20187,1.92918 0.54766,3.23164 0.37567,1.32623 0.92333,2.89377 1.67383,4.67902 l 28.04433,65.69426 26.13975,-65.69426 c 0.4625,-1.1823 0.80829,-2.36361 1.06809,-3.54591 0.2309,-1.18131 0.37483,-2.26622 0.37483,-3.25539 0,-1.92918 -0.86539,-3.3282 -2.53922,-4.19623 -1.70188,-0.86804 -4.44199,-1.30261 -8.19337,-1.30261 h -1.12519 v -4.77459 c 2.53922,0.19214 5.13539,0.3369 7.78964,0.43346 2.65509,0.0966 5.51106,0.1449 8.54001,0.1449 3.00088,0 5.77086,-0.0483 8.36801,-0.1449 2.59715,-0.0966 5.04856,-0.24132 7.35688,-0.43346 v 4.77459 c -3.89517,0.33802 -6.63542,0.91638 -8.25117,1.73704 -1.587,0.81968 -2.82805,2.21787 -3.66538,4.19623 l -39.64232,94.48992 z m 117.74646,-4.48589 c 12.55118,0 22.56315,-4.38935 30.03492,-13.19193 7.47372,-8.77868 11.19606,-20.64438 11.19606,-35.57237 0,-14.88048 -3.66538,-26.72159 -10.99322,-35.47582 -7.32882,-8.75507 -17.08098,-13.14358 -29.3136,-13.14358 -12.60897,0 -22.649,4.36476 -30.06478,13.11899 -7.44371,8.73048 -11.16522,20.57159 -11.16522,35.50041 0,14.92799 3.66357,26.79369 10.99239,35.57237 7.32881,8.80258 17.08098,13.19193 29.31345,13.19193 z m -0.17199,4.48589 c -8.39608,0 -15.98469,-1.10935 -22.82294,-3.35278 -6.80922,-2.24247 -12.86794,-5.59442 -18.14741,-10.08046 -5.71376,-4.75098 -9.98292,-10.36998 -12.86794,-16.858 -2.85695,-6.46342 -4.29904,-13.74653 -4.29904,-21.80125 0,-5.88492 0.74967,-11.40751 2.27859,-16.56833 1.52975,-5.16096 3.78027,-9.86359 6.75128,-14.08455 5.25127,-7.45163 12.32028,-13.26375 21.17802,-17.46095 8.88677,-4.19637 18.60907,-6.29407 29.19856,-6.29407 17.68574,0 31.79571,4.79933 42.3263,14.42159 10.53073,9.59851 15.81005,22.57356 15.81005,38.85237 0,8.15211 -1.64395,15.67668 -4.9327,22.54994 -3.31861,6.87327 -8.07917,12.78194 -14.33989,17.67685 -5.45396,4.29293 -11.56979,7.52457 -18.32204,9.71966 -6.78019,2.19425 -14.02217,3.27998 -21.81084,3.27998 z m 107.35967,-50.78989 v 33.01566 c 0,5.25737 0.80746,8.53736 2.39431,9.86358 1.61589,1.32622 5.10733,1.97739 10.44473,1.97739 h 1.18313 v 4.6308 c -3.95325,-0.19311 -7.70448,-0.33788 -11.28206,-0.45819 -3.57744,-0.12017 -7.03998,-0.19311 -10.35679,-0.19311 -3.34765,0 -6.81019,0.0729 -10.41666,0.16852 -3.6055,0.0966 -7.58764,0.26605 -11.91558,0.48278 v -4.6308 h 1.18312 c 5.33726,0 8.8287,-0.65117 10.44376,-1.97739 1.58769,-1.32622 2.39529,-4.60621 2.39529,-9.86358 V 79.69364 c 0,-5.25751 -0.7794,-8.51291 -2.36639,-9.79176 -1.58602,-1.25425 -5.07746,-1.88083 -10.47266,-1.88083 h -1.18312 v -4.77473 h 38.40112 c 18.92861,0 32.17138,2.00114 39.73095,6.02899 7.58695,4.00312 11.36723,10.87638 11.36723,20.6198 0,7.74129 -3.00088,13.60176 -9.00181,17.58126 -5.97272,3.9795 -15.46509,6.39049 -28.39096,7.28311 11.30998,1.27801 19.47529,3.66621 24.46675,7.18669 5.0205,3.49769 8.22325,9.1167 9.6363,16.858 0.34677,2.12229 0.6056,5.35407 0.80843,9.67061 0.20187,4.341 0.72146,7.28394 1.55879,8.85163 0.71966,1.20507 1.70189,2.1459 2.88404,2.77261 1.18327,0.65131 2.51032,0.96543 4.03924,0.96543 2.53922,0 4.55884,-0.67576 6.08859,-2.02657 1.52906,-1.32622 2.56728,-3.35196 3.11495,-6.02899 l 3.63551,0.69951 c -0.6627,4.77571 -2.59535,8.3926 -5.77003,10.87652 -3.17287,2.48392 -7.47275,3.71442 -12.86794,3.71442 -6.46342,0 -11.19425,-1.44723 -14.22403,-4.34113 -3.00088,-2.91835 -4.5009,-7.54902 -4.5009,-13.91588 0,-1.08491 0.0571,-2.48393 0.20186,-4.19637 0.14393,-1.73607 0.20187,-2.86918 0.20187,-3.44852 0,-9.98376 -2.10646,-16.64029 -6.31852,-19.94487 -4.24194,-3.30361 -12.43532,-4.94312 -24.55373,-4.94312 z m 0.086,-49.4884 v 44.27826 c 1.96168,0.14491 3.86627,0.26592 5.71292,0.33788 1.81776,0.0729 3.57758,0.0966 5.2803,0.0966 11.16522,0 19.30149,-1.85721 24.46676,-5.57066 5.16359,-3.71456 7.73171,-9.5503 7.73171,-17.53306 0,-7.74213 -2.53825,-13.36128 -7.61668,-16.83341 -5.0494,-3.4731 -13.27264,-5.21014 -24.58179,-5.21014 -1.70272,0 -3.46254,0.0246 -5.33726,0.0966 -1.84762,0.0729 -3.75138,0.19311 -5.65596,0.33801 z m 109.46612,55.71037 h 34.13209 L 701.04984,82.92529 Z m -32.862,43.26546 -0.0878,-4.6308 h 1.44292 c 3.14481,0 5.5401,-0.53016 7.15599,-1.5913 1.58685,-1.06101 3.08771,-3.15968 4.44283,-6.31852 l 40.85448,-92.65731 h 3.63537 l 39.98992,92.65731 c 1.35512,3.11063 2.85611,5.20916 4.47187,6.29407 1.64478,1.08559 4.03924,1.61575 7.18405,1.61575 h 1.35609 v 4.6308 c -4.01034,-0.24132 -7.76075,-0.40984 -11.25219,-0.53099 -3.49158,-0.12031 -6.83825,-0.16852 -10.041,-0.16852 -3.23164,0 -6.60721,0.0482 -10.18479,0.16852 -3.57758,0.12115 -7.38592,0.28967 -11.36806,0.53099 l -0.086,-4.6308 h 0.83733 c 3.7786,0 6.54858,-0.48181 8.28034,-1.4464 1.75968,-0.96459 2.62508,-2.50851 2.62508,-4.6308 0,-0.74772 -0.0281,-1.44737 -0.11573,-2.0977 -0.0861,-0.62754 -0.2309,-1.18229 -0.40387,-1.64034 l -9.6363,-24.04469 H 681.8624 l -6.78032,15.77226 c -1.50086,3.61787 -2.48115,6.19835 -2.94281,7.74227 -0.4618,1.5192 -0.69256,2.84542 -0.69256,3.97853 0,2.3154 0.69256,3.90754 2.07755,4.82391 1.38416,0.89179 3.92323,1.42278 7.61668,1.6159 l -0.086,4.55786 c -2.82805,-0.24132 -5.51106,-0.40984 -8.07931,-0.53099 -2.56728,-0.12031 -4.96257,-0.16852 -7.21295,-0.16852 -2.36542,0 -4.78877,0.0482 -7.27005,0.16852 -2.48212,0.12115 -5.13623,0.28967 -7.96331,0.53099 z" />
  <path
     inkscape:connector-curvature="0"
     d="m 67.36236,38.216418 6.95898,-14.107986 27.3163,55.416703 47.00261,-31.768706 -15.28029,96.434481 H 15.27988 L 0,47.756428 47.00505,79.525134 Z M 74.32134,53.098348 51.99743,98.39641 17.2774,74.926236 26.21601,131.33743 h 96.21067 L 131.36487,74.926236 96.64281,98.39641 Z"
     style="fill:#e6e6e6;fill-opacity:1;fill-rule:evenodd;stroke-width:4.06910276"
     id="path10" />
</svg>
