<?xml version="1.0" encoding="UTF-8" standalone="no"?>
<svg
   xmlns:dc="http://purl.org/dc/elements/1.1/"
   xmlns:cc="http://creativecommons.org/ns#"
   xmlns:rdf="http://www.w3.org/1999/02/22-rdf-syntax-ns#"
   xmlns:svg="http://www.w3.org/2000/svg"
   xmlns="http://www.w3.org/2000/svg"
   xmlns:sodipodi="http://sodipodi.sourceforge.net/DTD/sodipodi-0.dtd"
   xmlns:inkscape="http://www.inkscape.org/namespaces/inkscape"
   version="1.1"
   width="405.8606"
   height="197.0605"
   id="svg16"
   viewBox="0 0 405.8606 197.0605"
   sodipodi:docname="logo-black.svg"
   inkscape:version="0.92.3 (2405546, 2018-03-11)">
  <metadata
     id="metadata22">
    <rdf:RDF>
      <cc:Work
         rdf:about="">
        <dc:format>image/svg+xml</dc:format>
        <dc:type
           rdf:resource="http://purl.org/dc/dcmitype/StillImage" />
        <dc:title></dc:title>
      </cc:Work>
    </rdf:RDF>
  </metadata>
  <defs
     id="defs20" />
  <sodipodi:namedview
     pagecolor="#ffffff"
     bordercolor="#666666"
     borderopacity="1"
     objecttolerance="10"
     gridtolerance="10"
     guidetolerance="10"
     inkscape:pageopacity="0"
     inkscape:pageshadow="2"
     inkscape:window-width="1920"
     inkscape:window-height="1017"
     id="namedview18"
     showgrid="false"
     inkscape:zoom="1.4010318"
     inkscape:cx="202.94529"
     inkscape:cy="98.786313"
     inkscape:window-x="0"
     inkscape:window-y="30"
     inkscape:window-maximized="1"
     inkscape:current-layer="svg16" />
  <path
     inkscape:connector-curvature="0"
     id="path4"
     style="fill:#333333;fill-opacity:1;fill-rule:evenodd"
     d="m 0,157.1542 v -3.9927 h 0.7416 c 3.3465,0 5.5355,-0.5616 6.5482,-1.7051 0.9951,-1.1442 1.5011,-3.9725 1.5011,-8.4852 V 81.789 c 0,-4.5335 -0.4877,-7.3619 -1.4827,-8.4643 C 6.3131,72.2229 4.1247,71.6821 0.7416,71.6821 H 0 v -4.1178 h 57.7384 v 5.3864 c 0,3.057 0.0727,8.3183 0.2174,15.7839 0,0.8528 0,1.4764 0,1.8927 H 55.2424 C 55.2063,83.4316 53.8316,78.4824 51.0999,75.7582 48.3871,73.0334 43.232,71.6821 35.635,71.6821 H 18.7759 v 36.1853 h 8.4839 c 5.0465,0 8.2659,-0.8737 9.6413,-2.6205 1.3747,-1.7468 2.1701,-5.5734 2.3874,-11.4589 h 2.6048 c -0.1087,2.9326 -0.1807,5.8646 -0.2351,8.8181 -0.0549,2.932 -0.0903,5.8432 -0.0903,8.7341 0,2.9118 0.0354,5.8229 0.0903,8.7139 0.0544,2.8694 0.1264,5.7604 0.2351,8.6507 h -2.6048 c -0.2173,-7.216 -1.0127,-11.812 -2.3874,-13.8293 -1.3754,-2.0172 -4.5948,-3.0153 -9.6413,-3.0153 h -8.4839 v 41.3013 h 21.5253 c 7.5793,0 12.7521,-1.5181 15.4838,-4.5752 2.7501,-3.0571 4.1602,-8.693 4.2328,-16.9072 h 2.6048 c -0.199,3.6598 -0.3797,7.5489 -0.525,11.6459 -0.1264,4.0963 -0.235,8.7132 -0.307,13.8292 z M 41.5679,47.974 25.6317,59.2042 H 21.7066 L 36.3218,40.8414 c 0.959,-1.2275 1.9174,-2.1423 2.8941,-2.7867 0.959,-0.6241 1.8997,-0.9362 2.7677,-0.9362 1.1037,0 2.0437,0.4782 2.8398,1.4353 0.796,0.9565 1.194,2.0792 1.194,3.3894 0,1.0607 -0.2894,1.9964 -0.8687,2.8076 -0.5964,0.8111 -1.7727,1.8927 -3.5808,3.2232 z M 109.2572,158.2585 79.9751,92.9364 C 79.8918,92.7797 79.7673,92.5194 79.622,92.1726 77.7526,88.0409 74.4713,85.975 69.7571,85.975 v -3.4367 c 2.3052,0.1383 4.735,0.2425 7.2481,0.312 2.5126,0.0695 5.2121,0.1043 8.0784,0.1043 2.9288,0 5.6485,-0.0348 8.2034,-0.1043 2.5333,-0.0695 4.9422,-0.1737 7.2684,-0.312 v 3.4367 c -3.0944,0 -5.2746,0.2433 -6.5413,0.7291 -1.2881,0.5035 -1.9319,1.302 -1.9319,2.4304 0,0.6077 0.1453,1.3886 0.3942,2.3261 0.2704,0.9546 0.6646,2.0829 1.2048,3.3679 l 20.186,47.286 18.8151,-47.286 c 0.3329,-0.851 0.5818,-1.7013 0.7688,-2.5523 0.1662,-0.8503 0.2698,-1.6312 0.2698,-2.3432 0,-1.3886 -0.6229,-2.3956 -1.8277,-3.0204 -1.225,-0.6248 -3.1973,-0.9376 -5.8975,-0.9376 h -0.8099 v -3.4367 c 1.8277,0.1383 3.6964,0.2425 5.6069,0.312 1.9111,0.0695 3.9668,0.1043 6.147,0.1043 2.16,0 4.1538,-0.0348 6.0232,-0.1043 1.8694,-0.0695 3.6339,-0.1737 5.2954,-0.312 v 3.4367 c -2.8037,0.2433 -4.7761,0.6596 -5.9391,1.2503 -1.1423,0.59 -2.0356,1.5964 -2.6383,3.0204 l -28.5341,68.0128 z m 84.7526,-3.2289 c 9.0342,0 16.2407,-3.1594 21.6188,-9.4954 5.3795,-6.3188 8.0588,-14.8596 8.0588,-25.6046 0,-10.7108 -2.6383,-19.2339 -7.9128,-25.5351 -5.2752,-6.3018 -12.2947,-9.4606 -21.0996,-9.4606 -9.0758,0 -16.3025,3.1417 -21.6403,9.4429 -5.3579,6.2841 -8.0366,14.8072 -8.0366,25.5528 0,10.745 2.637,19.2858 7.9122,25.6046 5.2752,6.336 12.2947,9.4954 21.0995,9.4954 z m -0.1238,3.2289 c -6.0434,0 -11.5056,-0.7985 -16.4277,-2.4133 -4.9012,-1.6141 -9.2622,-4.0268 -13.0623,-7.2558 -4.1127,-3.4197 -7.1856,-7.4642 -9.2622,-12.1342 -2.0564,-4.6523 -3.0944,-9.8946 -3.0944,-15.6923 0,-4.2359 0.5396,-8.211 1.6401,-11.9257 1.1011,-3.7148 2.721,-7.0997 4.8595,-10.1379 3.7798,-5.3636 8.868,-9.5471 15.2437,-12.5682 6.3966,-3.0205 13.3946,-4.5304 21.0168,-4.5304 12.73,0 22.8862,3.4545 30.466,10.3805 7.5799,6.9089 11.3799,16.2482 11.3799,27.9655 0,5.8678 -1.1833,11.2839 -3.5505,16.2312 -2.3887,4.9473 -5.8153,9.2003 -10.3217,12.7236 -3.9257,3.09 -8.3278,5.4161 -13.188,6.9961 -4.8803,1.5794 -10.093,2.3609 -15.6992,2.3609 z m 77.2763,-36.558 v 23.7643 c 0,3.7842 0.5812,6.1451 1.7234,7.0997 1.1631,0.9546 3.6762,1.4233 7.518,1.4233 h 0.8516 v 3.3332 c -2.8455,-0.139 -5.5456,-0.2432 -8.1207,-0.3298 -2.575,-0.0865 -5.0673,-0.139 -7.4547,-0.139 -2.4096,0 -4.9019,0.0525 -7.4978,0.1213 -2.5952,0.0695 -5.4615,0.1915 -8.5767,0.3475 v -3.3332 h 0.8516 c 3.8417,0 6.3548,-0.4687 7.5173,-1.4233 1.1428,-0.9546 1.7241,-3.3155 1.7241,-7.0997 V 94.4811 c 0,-3.7843 -0.561,-6.1275 -1.7033,-7.048 -1.1416,-0.9028 -3.6547,-1.3538 -7.5381,-1.3538 h -0.8516 v -3.4368 h 27.6407 c 13.6246,0 23.1566,1.4404 28.5979,4.3396 5.461,2.8814 8.182,7.8287 8.182,14.8419 0,5.5721 -2.16,9.7904 -6.4794,12.6548 -4.2991,2.8644 -11.1316,4.5998 -20.4355,5.2423 8.1408,0.9199 14.0181,2.6389 17.6109,5.1729 3.6137,2.5176 5.919,6.5621 6.9361,12.1342 0.2496,1.5276 0.4359,3.8538 0.5819,6.9608 0.1453,3.1246 0.5193,5.2429 1.122,6.3713 0.518,0.8674 1.225,1.5446 2.0759,1.9957 0.8517,0.4688 1.8069,0.6949 2.9074,0.6949 1.8277,0 3.2814,-0.4864 4.3825,-1.4587 1.1006,-0.9546 1.8479,-2.4127 2.2421,-4.3396 l 2.6168,0.5035 c -0.477,3.4375 -1.8681,6.0409 -4.1532,7.8288 -2.2838,1.7879 -5.3788,2.6736 -9.2622,2.6736 -4.6523,0 -8.0575,-1.0417 -10.2383,-3.1247 -2.16,-2.1006 -3.2397,-5.4337 -3.2397,-10.0165 0,-0.7809 0.0411,-1.7879 0.1453,-3.0205 0.1036,-1.2496 0.1453,-2.0652 0.1453,-2.4822 0,-7.1862 -1.5162,-11.9775 -4.548,-14.3561 -3.0533,-2.3779 -8.9508,-3.558 -17.6735,-3.558 z m 0.0619,-35.6212 v 31.871 c 1.412,0.1043 2.7829,0.1914 4.1121,0.2432 1.3084,0.0525 2.5751,0.0695 3.8007,0.0695 8.0366,0 13.893,-1.3368 17.6109,-4.0097 3.7167,-2.6737 5.5652,-6.8742 5.5652,-12.6201 0,-5.5727 -1.827,-9.6173 -5.4824,-12.1165 -3.6345,-2.4999 -9.5535,-3.7502 -17.6937,-3.7502 -1.2256,0 -2.4923,0.0177 -3.8417,0.0695 -1.3299,0.0525 -2.7002,0.139 -4.0711,0.2433 z m 78.7925,40.0997 h 24.5679 L 362.7271,96.8072 Z m -23.6537,31.142 -0.0632,-3.3332 h 1.0386 c 2.2636,0 3.9877,-0.3816 5.1508,-1.1454 1.1422,-0.7637 2.2225,-2.2743 3.1979,-4.548 l 29.4066,-66.6937 h 2.6167 l 28.7843,66.6937 c 0.9754,2.239 2.0558,3.7495 3.2188,4.5304 1.1839,0.7814 2.9074,1.163 5.171,1.163 h 0.9761 v 3.3332 c -2.8866,-0.1737 -5.5861,-0.295 -8.0992,-0.3822 -2.5132,-0.0866 -4.9221,-0.1213 -7.2274,-0.1213 -2.3261,0 -4.7558,0.0347 -7.3309,0.1213 -2.5751,0.0872 -5.3163,0.2085 -8.1826,0.3822 l -0.0619,-3.3332 h 0.6027 c 2.7198,0 4.7136,-0.3468 5.9601,-1.0411 1.2666,-0.6943 1.8895,-1.8056 1.8895,-3.3332 0,-0.5382 -0.0202,-1.0418 -0.0833,-1.5099 -0.062,-0.4517 -0.1662,-0.851 -0.2907,-1.1807 l -6.9361,-17.3071 h -27.1846 l -4.8804,11.3527 c -1.0803,2.6041 -1.7859,4.4615 -2.1182,5.5728 -0.3324,1.0935 -0.4985,2.0481 -0.4985,2.8637 0,1.6666 0.4985,2.8126 1.4954,3.4722 0.9963,0.6419 2.8239,1.0241 5.4824,1.1631 l -0.0619,3.2807 c -2.0356,-0.1737 -3.9668,-0.295 -5.8154,-0.3822 -1.8479,-0.0866 -3.572,-0.1213 -5.1918,-0.1213 -1.7026,0 -3.4469,0.0347 -5.2329,0.1213 -1.7866,0.0872 -3.697,0.2085 -5.7319,0.3822 z" />
  <g
     id="Layer1001"
     transform="translate(-217.9996,-199.3636)">
    <path
       inkscape:connector-curvature="0"
       id="path6"
       style="fill:#ab9f89;fill-rule:evenodd"
       d="M 388.7107,222.1999 H 219.0951 v -3.1342 h 169.6156 z" />
    <path
       inkscape:connector-curvature="0"
       id="path8"
       style="fill:#ab9f89;fill-rule:evenodd"
       d="M 622.7646,222.1999 H 453.149 v -3.1342 h 169.6156 z" />
    <path
       inkscape:connector-curvature="0"
       id="path10"
       style="fill:#ab9f89;fill-rule:evenodd"
       d="m 420.4813,202.8307 1.7102,-3.4671 6.7131,13.6189 11.5511,-7.8073 -3.7552,23.6992 h -29.0187 l -3.7551,-23.6992 11.5517,7.8073 z m 1.7102,3.6573 -5.4862,11.1322 -8.5326,-5.7679 2.1967,13.8633 h 23.6442 l 2.1966,-13.8633 -8.5331,5.7679 z" />
  </g>
  <path
     inkscape:connector-curvature="0"
     id="path13"
     style="fill:#ab9f89;fill-rule:evenodd;stroke:#ab9f89;stroke-width:0.21600001;stroke-linecap:butt;stroke-linejoin:miter;stroke-dasharray:none"
     d="m 61.8681,196.6183 6.4426,-15.596 h 2.0015 l 6.5058,15.596 h -2.0015 l -2.1872,-5.258 h -6.6172 l -2.1425,5.258 z m 4.7642,-6.6841 h 5.3991 l -2.7218,-6.8585 z m 13.0365,-5.3433 c 0,-1.1512 0.4941,-2.0869 1.4817,-2.8148 0.9879,-0.7243 2.124,-1.088 3.4163,-1.088 0.9952,0 1.9865,0.2302 2.9744,0.6869 0.3268,0.1485 0.6945,0.3787 1.1103,0.7018 l -0.7651,1.6413 c -0.3268,-0.2526 -0.6684,-0.4754 -1.021,-0.6611 -0.8356,-0.4456 -1.6004,-0.6684 -2.2986,-0.6757 -0.7537,0 -1.4221,0.193 -2.0126,0.583 -0.5868,0.3861 -0.8802,0.9284 -0.8802,1.6266 0,0.282 0.0559,0.5419 0.1673,0.7798 0.1151,0.2412 0.3081,0.464 0.5828,0.6757 l 0.6313,0.4902 c 0.1448,0.1077 0.4235,0.2673 0.8319,0.479 0.4122,0.2078 0.6387,0.3305 0.6795,0.3563 l 1.0361,0.5684 c 0.5011,0.2747 0.843,0.4751 1.021,0.5978 l 0.8169,0.542 c 0.3714,0.2489 0.6313,0.4717 0.7835,0.6684 0.1523,0.2007 0.3269,0.4456 0.5199,0.7353 0.1933,0.2897 0.3232,0.6052 0.3974,0.9471 0.0706,0.3415 0.1077,0.7166 0.1077,1.1324 0,1.2438 -0.5198,2.2873 -1.5559,3.1266 -1.0397,0.843 -2.228,1.2626 -3.5722,1.2626 -1.1177,0 -2.1946,-0.3118 -3.2343,-0.9321 -0.4567,-0.271 -0.8615,-0.5867 -1.2181,-0.9581 l 0.7725,-1.6747 c 0.4158,0.3714 0.8243,0.6834 1.2327,0.9357 0.9508,0.6239 1.764,0.9357 2.4472,0.9357 0.8651,0 1.6004,-0.2522 2.2093,-0.7574 0.6092,-0.5011 0.9136,-1.1511 0.9136,-1.9383 0,-0.6982 -0.2599,-1.3221 -0.7761,-1.8714 -0.5199,-0.5534 -1.1548,-1.0177 -1.9012,-1.3927 l -2.228,-1.1659 c -0.7427,-0.3974 -1.3703,-0.8949 -1.8902,-1.4927 -0.5199,-0.5978 -0.7798,-1.2813 -0.7798,-2.0497 z m 12.7358,0 c 0,-1.1512 0.4941,-2.0869 1.4817,-2.8148 0.9878,-0.7243 2.124,-1.088 3.4163,-1.088 0.9952,0 1.9865,0.2302 2.9744,0.6869 0.3268,0.1485 0.6945,0.3787 1.1103,0.7018 l -0.7651,1.6413 c -0.3268,-0.2526 -0.6684,-0.4754 -1.021,-0.6611 -0.8357,-0.4456 -1.6005,-0.6684 -2.2986,-0.6757 -0.7538,0 -1.4222,0.193 -2.0126,0.583 -0.5868,0.3861 -0.8802,0.9284 -0.8802,1.6266 0,0.282 0.0559,0.5419 0.1673,0.7798 0.115,0.2412 0.3081,0.464 0.5828,0.6757 l 0.6312,0.4902 c 0.1449,0.1077 0.4235,0.2673 0.832,0.479 0.4122,0.2078 0.6387,0.3305 0.6795,0.3563 l 1.036,0.5684 c 0.5012,0.2747 0.8431,0.4751 1.0211,0.5978 l 0.8169,0.542 c 0.3714,0.2489 0.6313,0.4717 0.7835,0.6684 0.1522,0.2007 0.3269,0.4456 0.5199,0.7353 0.1933,0.2897 0.3231,0.6052 0.3974,0.9471 0.0706,0.3415 0.1077,0.7166 0.1077,1.1324 0,1.2438 -0.5198,2.2873 -1.5559,3.1266 -1.0398,0.843 -2.228,1.2626 -3.5722,1.2626 -1.1177,0 -2.1946,-0.3118 -3.2344,-0.9321 -0.4566,-0.271 -0.8614,-0.5867 -1.218,-0.9581 l 0.7724,-1.6747 c 0.4159,0.3714 0.8243,0.6834 1.2328,0.9357 0.9508,0.6239 1.764,0.9357 2.4472,0.9357 0.8651,0 1.6004,-0.2522 2.2093,-0.7574 0.6092,-0.5011 0.9136,-1.1511 0.9136,-1.9383 0,-0.6982 -0.2599,-1.3221 -0.7761,-1.8714 -0.5199,-0.5534 -1.1549,-1.0177 -1.9012,-1.3927 l -2.2281,-1.1659 c -0.7426,-0.3974 -1.3702,-0.8949 -1.8901,-1.4927 -0.5199,-0.5978 -0.7798,-1.2813 -0.7798,-2.0497 z m 13.449,12.0274 v -15.596 h 9.9368 v 1.4258 h -7.9319 v 4.9462 h 6.5951 v 1.4258 h -6.5951 v 6.3723 h 7.9319 v 1.4259 z m 12.8469,-12.0274 c 0,-1.1512 0.494,-2.0869 1.4816,-2.8148 0.9879,-0.7243 2.124,-1.088 3.4163,-1.088 0.9953,0 1.9866,0.2302 2.9744,0.6869 0.3269,0.1485 0.6945,0.3787 1.1104,0.7018 l -0.7651,1.6413 c -0.3268,-0.2526 -0.6684,-0.4754 -1.021,-0.6611 -0.8357,-0.4456 -1.6005,-0.6684 -2.2987,-0.6757 -0.7537,0 -1.4221,0.193 -2.0126,0.583 -0.5867,0.3861 -0.8801,0.9284 -0.8801,1.6266 0,0.282 0.0558,0.5419 0.1672,0.7798 0.1151,0.2412 0.3082,0.464 0.5828,0.6757 l 0.6313,0.4902 c 0.1449,0.1077 0.4235,0.2673 0.832,0.479 0.4121,0.2078 0.6386,0.3305 0.6794,0.3563 l 1.0361,0.5684 c 0.5012,0.2747 0.843,0.4751 1.021,0.5978 l 0.817,0.542 c 0.3713,0.2489 0.6313,0.4717 0.7835,0.6684 0.1522,0.2007 0.3268,0.4456 0.5199,0.7353 0.1933,0.2897 0.3231,0.6052 0.3974,0.9471 0.0706,0.3415 0.1077,0.7166 0.1077,1.1324 0,1.2438 -0.5199,2.2873 -1.5559,3.1266 -1.0398,0.843 -2.2281,1.2626 -3.5723,1.2626 -1.1177,0 -2.1945,-0.3118 -3.2343,-0.9321 -0.4567,-0.271 -0.8614,-0.5867 -1.218,-0.9581 l 0.7724,-1.6747 c 0.4158,0.3714 0.8243,0.6834 1.2328,0.9357 0.9507,0.6239 1.764,0.9357 2.4471,0.9357 0.8652,0 1.6005,-0.2522 2.2094,-0.7574 0.6091,-0.5011 0.9136,-1.1511 0.9136,-1.9383 0,-0.6982 -0.26,-1.3221 -0.7762,-1.8714 -0.5198,-0.5534 -1.1548,-1.0177 -1.9012,-1.3927 l -2.228,-1.1659 c -0.7427,-0.3974 -1.3703,-0.8949 -1.8901,-1.4927 -0.5199,-0.5978 -0.7798,-1.2813 -0.7798,-2.0497 z m 12.7357,0 c 0,-1.1512 0.4941,-2.0869 1.4817,-2.8148 0.9879,-0.7243 2.124,-1.088 3.4163,-1.088 0.9953,0 1.9865,0.2302 2.9744,0.6869 0.3269,0.1485 0.6945,0.3787 1.1104,0.7018 l -0.7651,1.6413 c -0.3269,-0.2526 -0.6684,-0.4754 -1.0211,-0.6611 -0.8356,-0.4456 -1.6004,-0.6684 -2.2986,-0.6757 -0.7537,0 -1.4221,0.193 -2.0126,0.583 -0.5867,0.3861 -0.8801,0.9284 -0.8801,1.6266 0,0.282 0.0558,0.5419 0.1672,0.7798 0.1151,0.2412 0.3081,0.464 0.5828,0.6757 l 0.6313,0.4902 c 0.1448,0.1077 0.4235,0.2673 0.832,0.479 0.4121,0.2078 0.6386,0.3305 0.6794,0.3563 l 1.0361,0.5684 c 0.5012,0.2747 0.843,0.4751 1.021,0.5978 l 0.817,0.542 c 0.3713,0.2489 0.6312,0.4717 0.7835,0.6684 0.1522,0.2007 0.3268,0.4456 0.5198,0.7353 0.1934,0.2897 0.3232,0.6052 0.3975,0.9471 0.0705,0.3415 0.1077,0.7166 0.1077,1.1324 0,1.2438 -0.5199,2.2873 -1.556,3.1266 -1.0397,0.843 -2.228,1.2626 -3.5722,1.2626 -1.1177,0 -2.1946,-0.3118 -3.2343,-0.9321 -0.4567,-0.271 -0.8615,-0.5867 -1.2181,-0.9581 l 0.7725,-1.6747 c 0.4158,0.3714 0.8243,0.6834 1.2328,0.9357 0.9507,0.6239 1.764,0.9357 2.4471,0.9357 0.8652,0 1.6005,-0.2522 2.2093,-0.7574 0.6092,-0.5011 0.9136,-1.1511 0.9136,-1.9383 0,-0.6982 -0.2599,-1.3221 -0.7761,-1.8714 -0.5199,-0.5534 -1.1548,-1.0177 -1.9012,-1.3927 l -2.228,-1.1659 c -0.7427,-0.3974 -1.3703,-0.8949 -1.8901,-1.4927 -0.5199,-0.5978 -0.7799,-1.2813 -0.7799,-2.0497 z m 15.1458,9.9887 c -1.5188,-1.5854 -2.2762,-3.5053 -2.2762,-5.7595 0,-2.2538 0.7574,-4.1737 2.2762,-5.7554 1.5152,-1.5857 3.4311,-2.3766 5.7484,-2.3766 2.3134,0 4.2664,0.7946 5.8558,2.384 1.5894,1.593 2.384,3.509 2.384,5.748 0,2.2394 -0.7946,4.1554 -2.384,5.7484 -1.5894,1.5894 -3.5424,2.384 -5.8558,2.384 -2.3173,0 -4.2332,-0.7909 -5.7484,-2.3729 z m 1.4185,-10.3266 c -1.1251,1.2475 -1.6895,2.77 -1.6895,4.5671 0,1.7975 0.5644,3.32 1.6895,4.5675 1.129,1.2478 2.5696,1.8714 4.3223,1.8714 1.7566,0 3.2343,-0.6273 4.4376,-1.8824 1.203,-1.2552 1.8045,-2.774 1.8045,-4.5565 0,-1.7824 -0.6015,-3.3009 -1.8045,-4.5561 -1.2033,-1.2552 -2.681,-1.8827 -4.4376,-1.8827 -1.7527,0 -3.1933,0.6239 -4.3223,1.8717 z m 16.1671,12.3653 v -15.596 h 4.9499 c 1.5038,0 2.7774,0.4677 3.8208,1.4035 1.0434,0.9396 1.567,2.1166 1.567,3.535 0,1.0659 -0.3008,2.0053 -0.8986,2.8259 -0.5978,0.8169 -1.3997,1.4037 -2.3987,1.7566 l 3.5241,6.075 h -2.0016 l -3.3086,-5.726 h -3.2493 v 5.726 z m 2.005,-7.1519 h 2.9449 c 0.9504,0 1.7526,-0.3305 2.406,-0.9915 0.65,-0.6611 0.9768,-1.4964 0.9768,-2.5141 0,-1.0136 -0.3268,-1.8527 -0.9768,-2.5174 -0.6534,-0.6647 -1.4556,-0.9953 -2.406,-0.9953 h -2.9449 z m 12.1121,7.1519 v -15.596 h 2.005 v 15.596 z m 5.5616,0 6.4426,-15.596 h 2.0015 l 6.5058,15.596 h -2.0015 l -2.1872,-5.258 h -6.6172 l -2.1425,5.258 z m 4.7642,-6.6841 h 5.3991 l -2.7218,-6.8585 z m 18.8742,6.6841 v -15.596 h 2.0049 v 15.596 z m 6.3638,0 v -15.596 h 2.0049 l 4.7866,6.8845 4.7939,-6.8845 h 2.0053 v 15.596 h -2.0053 v -12.473 l -4.0325,5.6108 h -1.5339 l -4.0141,-5.5924 v 12.4546 z m 19.2563,-2.0387 c -1.5188,-1.5854 -2.2762,-3.5053 -2.2762,-5.7595 0,-2.2538 0.7574,-4.1737 2.2762,-5.7554 1.5151,-1.5857 3.431,-2.3766 5.7484,-2.3766 2.3133,0 4.2664,0.7946 5.8558,2.384 1.5894,1.593 2.3839,3.509 2.3839,5.748 0,2.2394 -0.7945,4.1554 -2.3839,5.7484 -1.5894,1.5894 -3.5425,2.384 -5.8558,2.384 -2.3174,0 -4.2333,-0.7909 -5.7484,-2.3729 z m 1.4184,-10.3266 c -1.125,1.2475 -1.6894,2.77 -1.6894,4.5671 0,1.7975 0.5644,3.32 1.6894,4.5675 1.1291,1.2478 2.5696,1.8714 4.3223,1.8714 1.7566,0 3.2343,-0.6273 4.4376,-1.8824 1.2031,-1.2552 1.8046,-2.774 1.8046,-4.5565 0,-1.7824 -0.6015,-3.3009 -1.8046,-4.5561 -1.2033,-1.2552 -2.681,-1.8827 -4.4376,-1.8827 -1.7527,0 -3.1932,0.6239 -4.3223,1.8717 z m 16.1672,12.3653 v -15.596 h 5.3543 c 0.921,0 1.7158,0.1298 2.3916,0.3861 0.6758,0.2563 1.1809,0.5978 1.5225,1.0213 0.3416,0.4232 0.5865,0.8464 0.735,1.2623 0.1486,0.4198 0.2228,0.8504 0.2228,1.2923 0,1.207 -0.4901,2.1427 -1.4703,2.8038 1.6784,0.7871 2.5177,2.0942 2.5177,3.9211 0,1.4372 -0.5088,2.6141 -1.5225,3.5314 -1.0176,0.9173 -2.4324,1.3777 -4.2443,1.3777 z m 2.0049,-1.4259 h 3.1192 c 2.763,0 4.1443,-1.1625 4.1443,-3.4832 0,-1.0582 -0.3195,-1.8306 -0.9581,-2.317 -0.635,-0.4864 -1.6302,-0.7427 -2.9781,-0.7725 h -3.3273 z m 0,-7.9985 h 2.967 c 1.2328,0 2.0795,-0.1672 2.5475,-0.5051 0.4677,-0.3379 0.7019,-0.906 0.7019,-1.7045 0,-0.8317 -0.2379,-1.4445 -0.7132,-1.838 -0.4714,-0.39 -1.3181,-0.5868 -2.5362,-0.5868 -0.2265,0.0148 -0.5717,0.0224 -1.0434,0.0224 h -1.9236 z m 12.8957,9.4244 v -15.596 h 2.0049 v 15.596 z m 6.5865,0 v -15.596 h 2.005 v 14.1701 h 7.5529 v 1.4259 z m 13.1145,0 v -15.596 h 2.005 v 15.596 z m 5.5616,0 6.4426,-15.596 h 2.0015 l 6.5058,15.596 h -2.0015 l -2.1872,-5.258 h -6.6172 l -2.1425,5.258 z m 4.7642,-6.6841 h 5.3991 l -2.7218,-6.8585 z m 0.828,-11.5149 2.1872,-2.9707 h 2.4471 l -2.6328,2.9707 z m 12.9217,18.199 v -15.596 h 4.9499 c 1.5038,0 2.7774,0.4677 3.8208,1.4035 1.0434,0.9396 1.567,2.1166 1.567,3.535 0,1.0659 -0.3008,2.0053 -0.8986,2.8259 -0.5978,0.8169 -1.3997,1.4037 -2.3987,1.7566 l 3.5241,6.075 h -2.0016 l -3.3086,-5.726 h -3.2493 v 5.726 z m 2.005,-7.1519 h 2.9449 c 0.9504,0 1.7526,-0.3305 2.406,-0.9915 0.65,-0.6611 0.9768,-1.4964 0.9768,-2.5141 0,-1.0136 -0.3268,-1.8527 -0.9768,-2.5174 -0.6534,-0.6647 -1.4556,-0.9953 -2.406,-0.9953 h -2.9449 z m 12.1121,7.1519 v -15.596 h 2.005 v 15.596 z m 5.5616,0 6.4426,-15.596 h 2.0015 l 6.5058,15.596 h -2.0015 l -2.1872,-5.258 h -6.6172 l -2.1425,5.258 z m 4.7642,-6.6841 h 5.3991 l -2.7218,-6.8585 z" />
</svg>
